<?xml version="1.0" encoding="utf-8"?>
<!-- Generator: Adobe Illustrator 28.2.0, SVG Export Plug-In . SVG Version: 6.00 Build 0)  -->
<svg version="1.1" id="Ebene_1" xmlns="http://www.w3.org/2000/svg" xmlns:xlink="http://www.w3.org/1999/xlink" x="0px" y="0px"
	 viewBox="0 0 275 100" style="enable-background:new 0 0 275 100;" xml:space="preserve">
<style type="text/css">
	.st0{fill:#0A1A31;}
	.st1{fill:#F6D621;}
	.st2{fill:#C62370;}
	.st3{fill:none;}
	.st4{fill:none;stroke:#F6D621;stroke-width:0.25;stroke-miterlimit:10;}
	.st5{fill:#F6D621;stroke:#FFFFFF;stroke-miterlimit:10;}
	.st6{fill:#C62370;stroke:#FFFFFF;stroke-miterlimit:10;}
	.st7{fill:#0A1A31;stroke:#FFFFFF;stroke-miterlimit:10;}
</style>
<g>
	<g>
		<path class="st2" d="M65.1,43.7c-9,0-15.3-6.3-15.3-15c0-8.6,6.3-15,15.3-15s15.3,6.3,15.3,15C80.4,37.3,74.1,43.7,65.1,43.7z
			 M77.2,28.7c0-7-5-12.1-12.2-12.1s-12.2,5.1-12.2,12.1c0,7,5,12.1,12.2,12.1S77.2,35.7,77.2,28.7z"/>
		<path class="st2" d="M84.9,43.1V14.3h12.5c7,0,10,3.9,10,9.2c0,5.2-3.1,9.2-10,9.2H88v10.4H84.9z M97.4,29.8c5,0,6.8-2.7,6.8-6.3
			s-1.8-6.3-6.8-6.3H88v12.6H97.4z"/>
		<path class="st2" d="M111.3,43.1V14.3h21.1v2.9h-18V27h15.4v2.9h-15.4v10.3h18v2.9H111.3z"/>
		<path class="st2" d="M157.7,43.1V25.6c0-5.6-3.1-9-8.9-9c-5.9,0-8.9,3.4-8.9,9v17.5h-3.2V25.6c0-7.3,4.3-11.9,12.1-11.9
			c7.8,0,12.1,4.6,12.1,11.9v17.5H157.7z"/>
		<path class="st2" d="M30.8,65.1c0-1.7-1.1-3-3.6-3c-2.6,0-3.6,1.5-3.6,3c0,4.8,14.3,0,14.3,11.5c0,5.7-4.3,9.3-10.8,9.3
			c-6.4,0-10.7-3.5-10.8-9.1h7c0,1.8,1.1,3,3.9,3c2.8,0,3.9-1.1,3.9-3c0-4.8-14.2,0-14.2-11.5c0-5.5,4.1-9.3,10.4-9.3
			c6,0,10.1,3.7,10.4,9.1H30.8z"/>
		<path class="st2" d="M48.8,85.3h-7.1V67c0-7.7,4.5-11.1,10.3-11.1c3.5,0,6.3,1.4,7.9,3.9H60c1.7-2.6,4.4-3.9,7.9-3.9
			c5.8,0,10.3,3.4,10.3,11.1v18.2h-7.1V67c0-3.3-1.6-4.5-3.8-4.5c-2.1,0-3.8,1.2-3.8,4.5v18.2h-7.1V67c0-3.3-1.7-4.5-3.8-4.5
			c-2.2,0-3.8,1.2-3.8,4.5V85.3z"/>
		<path class="st2" d="M101,85.3v-8.2H89.7v8.2h-7V68.5c0-7.8,4.4-12.6,12.6-12.6c8.2,0,12.7,4.8,12.7,12.6v16.7H101z M101,68.5
			c0-4-1.7-6-5.6-6c-3.9,0-5.6,2.1-5.6,6v2.4H101V68.5z"/>
		<path class="st2" d="M128.7,85.3l-5.1-9h-3v9h-7.1V56.4h11.7c7.6,0,11,4.1,11,9.9c0,4.1-1.7,7.4-5.4,8.9v0.1l6.4,10H128.7z
			 M125.2,69.6c2.9,0,3.7-1.4,3.7-3.3s-0.8-3.3-3.7-3.3h-4.6v6.6H125.2z"/>
		<path class="st2" d="M146.6,85.3V63.1h-7.8v-6.6h22.9v6.6h-7.9v22.2H146.6z"/>
		<path class="st2" d="M190.9,66.1c-1.7-4.4-5.9-7.3-11.3-7.3c-7.2,0-12.2,5.1-12.2,12.1c0,7,5,12.1,12.2,12.1
			c5.4,0,9.6-2.9,11.3-7.3h3.3c-1.9,6.1-7.4,10.2-14.6,10.2c-9,0-15.3-6.3-15.3-15c0-8.6,6.3-15,15.3-15c7.2,0,12.8,4.1,14.6,10.2
			H190.9z"/>
		<path class="st2" d="M199,85.3V56.4h3.2v28.8H199z"/>
		<path class="st2" d="M216.1,85.3V59.4h-9.8v-2.9h22.7v2.9h-9.8v25.9H216.1z"/>
		<path class="st2" d="M243,85.3V72.6l-11.9-16.2h3.8l9.6,13.5h0.1l9.6-13.5h3.7l-11.8,16.1v12.7H243z"/>
	</g>
	<g>
		<path class="st1" d="M244.1,23h-2.6v4.2h2.6c1.8,0,2.4-0.9,2.4-2.1C246.5,23.9,245.9,23,244.1,23z"/>
		<path class="st1" d="M210.7,22.7c-2.3,0-3.4,1.2-3.4,3.6v1.4h6.7v-1.4C214.1,23.9,213.1,22.7,210.7,22.7z"/>
		<path class="st1" d="M228.3,23h-2.6v4.2h2.6c1.8,0,2.4-0.9,2.4-2.1C230.7,23.9,230.1,23,228.3,23z"/>
		<path class="st1" d="M248.6,14.2h-43.3c-7.3,0-13.3,6-13.3,13.3c0,1.2,0.2,2.4,0.5,3.5c0,0.1,0,0.2,0.1,0.3c0,0.1,0,0.1,0.1,0.2
			c0,0.1,0.1,0.3,0.1,0.4c0.3,0.8,0.6,1.6,1.1,2.3l-6.2,13.6H150V34.7l0.3-0.1c1.9-0.7,3.2-2.5,3.2-4.5c0-2.6-2.1-4.8-4.8-4.8
			c-3,0.1-4.4,2.2-4.7,4c-0.3,1.9,0.5,4.3,3.1,5.3l0.3,0.1v15.8h42l6.3-13.9c2.4,2.6,5.9,4.2,9.7,4.2h43.3c7.3,0,13.3-6,13.3-13.3
			C261.9,20.2,256,14.2,248.6,14.2z M146.5,30.1c0-1.2,1-2.2,2.2-2.2l0,0c1.4,0.1,2.1,1.1,2.1,2.2c0,1-0.7,2.1-2.1,2.2
			C147.5,32.3,146.5,31.3,146.5,30.1z M218.3,36.3h-4.3v-4.9h-6.7v4.9h-4.2v-10c0-4.7,2.7-7.5,7.5-7.5c4.9,0,7.6,2.9,7.6,7.5V36.3z
			 M228.2,31.2h-2.5v5.1h-4.3V19.1h6.8c4.7,0,6.8,2.5,6.8,6C235,28.6,232.9,31.2,228.2,31.2z M244.1,31.2h-2.5v5.1h-4.3V19.1h6.8
			c4.7,0,6.8,2.5,6.8,6C250.8,28.6,248.7,31.2,244.1,31.2z"/>
	</g>
</g>
</svg>
